<?xml version="1.0" encoding="utf-8"?>
<!-- Generator: Adobe Illustrator 23.0.1, SVG Export Plug-In . SVG Version: 6.00 Build 0)  -->
<svg version="1.1" id="Layer_1" xmlns="http://www.w3.org/2000/svg" xmlns:xlink="http://www.w3.org/1999/xlink" x="0px" y="0px"
	 viewBox="0 0 1000 1000" style="enable-background:new 0 0 1000 1000;" xml:space="preserve">
<style type="text/css">
	.st0{fill:#010101;}
	.st1{fill:#F26722;}
</style>
<g>
	<path class="st0" d="M358.1,488.5c-2-0.2-5.1-2-7.3-3.7c-20.9-20.5,5.9-44,37-57.6v-38.9c7.3,4.6,11.2,4.8,11.4,5.5l23.8-23.5
		l-7.9-20.2c69.5-24,97.4-33.2,154-42.7l-10.1-9.5l16.5-9.4c38,12.5,73.9,15.8,67.7,47.7c1.5-21.6-25.3-29.9-66.2-41.3l-7.9,4.8
		l15.2,12.5c-67.7,11.7-109.3,24.9-158.8,42.1l6.8,17.6l-24.8,24.4c4.2,1.1,47.5,15.6,92.6-15.8c0,0,0.9-0.7,0.9-0.9
		c-1.3-2.2-4.4-4.6-8.1-7.9c13.2,0.9,21.8,12.5,20.2,24.6h-6.1c0.4-3.8-0.2-7.5-1.8-11c-35,25.5-75.4,29.3-110,17.2v30.1
		c-16.7,5.9-46.6,24.4-46.4,42.2c1.1,8.6,5.5,11.6,9.5,13.9"/>
	<g>
		<path class="st1" d="M499.5,480.8c-37.4,18.9-73.3,34.1-128.5,36.3c-71.9-1.5-83.1-49.3-49-99.2c32.2-50.4,83.1-95.9,164.2-124.3
			c23.5-8.3,58.1-17.8,91.5-18.2c47.9-0.4,94.6,14.5,91.5,60.5c-1.8,35.2-52.6,84.9-79.4,120.5c-11.4,15.7-13.4,25.7,6.1,24.9
			c71-4.6,135.5-29.3,195.3-54.8c-40.5,27.5-249.6,131.1-250.5,60.5c0.2-9,4.4-18.5,11.2-28.6c6.6-10.1,15.8-20.7,25.3-31.5
			c14.3-16.3,49.7-55.3,61.6-78.5c20-44.2-24.8-46.4-63.6-60l-16.5,9.4l10.1,9.5c-56.5,9.4-84.5,18.7-154,42.7l7.9,20.2l-23.8,23.5
			c-0.7-0.7-4.2-0.9-11.4-5.5v38.9c-31,13.6-57.8,37.2-37,57.6c2.2,1.8,5.3,3.5,7.3,3.7C396,510.2,499.7,480.9,499.5,480.8
			 M109.7,589.5l-13.6-30.9l-14.4,30.9H109.7z M66.5,623.3H38.1L82,538.5h31.5l41.9,84.8h-31.6l-6.4-15.3h-44L66.5,623.3z
			 M159.5,538.5h27.2v84.8h-27.2V538.5z M203.4,564.2h27.2v59h-27.2V564.2z M203.4,538.6h27.2v17.3h-27.2V538.6z M300.7,593.9
			c0-5.2-1.2-9.3-3.7-12.3c-2.4-3-5.8-4.5-9.9-4.5c-4.5,0-8,1.5-10.4,4.3s-3.6,7.1-3.6,12.6c0,5.2,1.2,9.3,3.6,12.2
			c2.4,2.9,5.8,4.3,10.1,4.3c4.3,0,7.6-1.5,10.1-4.5C299.6,603,300.8,599,300.7,593.9 M246.1,538.4h27.3v34.2
			c3.1-3.2,6.8-5.8,10.9-7.5c4.2-1.7,8.7-2.6,13.2-2.5c9.3,0,16.8,3,22.4,8.9c5.6,5.9,8.5,13.8,8.5,23.6c0,8.9-2.8,16.1-8.4,21.5
			c-5.6,5.4-13,8.1-22.3,8.1c-5.1,0-9.7-0.9-13.8-2.8c-4.1-1.9-7.8-4.7-10.6-8.2l-0.2,5.3c-0.1,1.6-0.4,3-0.8,4.2H245
			c0.3-1.1,0.5-2.5,0.7-4.2c0.2-1.7,0.3-3.6,0.3-5.7v-74.9 M388.1,597.6c-8.8,0-14.9,0.6-18.1,1.7c-3.2,1.1-4.8,3.2-4.8,6
			c0,1.9,0.8,3.5,2.3,4.6c1.6,1.1,3.8,1.6,6.6,1.6c4.6,0,8.1-1.1,10.4-3.2c2.3-2.2,3.5-5.4,3.5-9.8V597.6L388.1,597.6z M388.7,614.5
			c-2.6,3.4-6,5.9-10.1,7.6c-4.1,1.7-9.1,2.5-15.1,2.5c-8.4,0-14.9-1.5-19.4-4.5c-4.4-2.7-7-7.6-6.8-12.7c0-7.5,3.9-12.9,11.7-16.2
			s20.8-5,39.2-5.2c0-0.1,0-0.3,0.1-0.7c0-0.2,0-0.5,0-0.7c0-3-0.8-5.3-2.7-6.8c-1.9-1.5-4.5-2.2-8.2-2.2c-3.3,0-5.8,0.5-7.6,1.6
			c-1.7,1.1-2.9,2.9-3.1,4.9h-25.2c0.1-6.6,3.3-11.4,9.3-14.6c6-3.2,15.4-4.8,27.9-4.8c12,0,20.9,1.9,26.8,5.6
			c5.9,3.7,8.8,9.4,8.8,17v30.1c0,1.5,0.1,3,0.3,4.5c0.2,1.1,0.5,2.2,0.9,3.2h-25.3c-0.5-1.4-0.9-2.8-1.1-4.3
			C388.8,617.5,388.7,616,388.7,614.5L388.7,614.5z M484.3,593.9c0-5.2-1.2-9.3-3.7-12.3s-5.8-4.5-10-4.5c-4.5,0-8,1.5-10.4,4.3
			c-2.4,2.9-3.6,7.1-3.6,12.6c0,5.2,1.2,9.3,3.6,12.2c2.4,2.9,5.8,4.3,10.1,4.3c4.3,0,7.6-1.5,10.1-4.5
			C483.1,603,484.3,599,484.3,593.9 M429.6,538.4h27.2v34.2c3.2-3.3,6.9-5.8,10.9-7.5c4.2-1.7,8.7-2.6,13.2-2.5
			c9.3,0,16.8,3,22.4,8.9c5.7,5.9,8.5,13.8,8.5,23.6c0,8.9-2.8,16.1-8.4,21.5c-5.6,5.4-13,8.1-22.3,8.1c-5.1,0-9.7-0.9-13.8-2.8
			c-4.1-1.9-7.8-4.7-10.6-8.2l-0.2,5.3c-0.1,1.4-0.4,2.8-0.7,4.2h-27.2c0.3-1.4,0.6-2.8,0.7-4.2c0.2-1.7,0.2-3.6,0.2-5.7v-74.9
			 M571.7,597.6c-8.8,0-14.9,0.6-18.2,1.7c-3.3,1.1-4.8,3.2-4.8,6c0,1.9,0.8,3.5,2.3,4.6c1.6,1.1,3.8,1.6,6.6,1.6
			c4.6,0,8.1-1.1,10.5-3.2s3.5-5.4,3.5-9.8L571.7,597.6z M572.3,614.5c-2.6,3.4-6,5.9-10.1,7.6s-9.1,2.5-15.1,2.5
			c-8.4,0-14.9-1.5-19.4-4.5c-4.4-2.7-7-7.6-6.8-12.7c0-7.5,3.9-12.9,11.7-16.2c7.8-3.3,20.9-5,39.2-5.2c0-0.1,0-0.3,0.1-0.7l0-0.7
			c0-3-0.8-5.3-2.7-6.8c-1.9-1.5-4.6-2.2-8.2-2.2c-3.3,0-5.8,0.5-7.6,1.6c-1.8,1.1-2.8,2.7-3.2,4.9h-25.2c0.1-6.6,3.3-11.4,9.3-14.6
			c6-3.2,15.4-4.8,27.9-4.8c12,0,20.9,1.9,26.8,5.6c5.9,3.7,8.8,9.4,8.8,17v30.1c0,1.5,0.1,3,0.2,4.5c0.2,1.1,0.5,2.2,0.9,3.2h-25.3
			c-0.5-1.4-0.9-2.8-1.1-4.3C572.4,617.5,572.3,616,572.3,614.5L572.3,614.5z M682.7,590.2v-9.9h35.7v31.2
			c-5.5,4.4-11.1,7.6-16.9,9.8c-5.7,2.2-11.8,3.3-17.9,3.3c-8.3,0-15.8-1.8-22.5-5.3c-6.6-3.4-12-8.8-15.3-15.4
			c-3.5-6.7-5.2-14.2-5.2-22.5c-0.1-7.9,1.7-15.8,5.1-22.9c3.4-7.1,8.3-12.4,14.8-15.8s13.8-5.2,22.2-5.2c6.1,0,11.6,1,16.5,3
			s8.8,4.7,11.6,8.3s4.9,8.1,6.4,13.8l-10.1,2.8c-1.3-4.3-2.8-7.7-4.7-10.1s-4.5-4.4-8-5.9c-3.5-1.5-7.3-2.2-11.6-2.2
			c-5.1,0-9.5,0.8-13.2,2.3c-3.7,1.6-6.7,3.6-9,6.1c-2.2,2.4-4,5.2-5.3,8.3c-2.2,5.4-3.3,11.2-3.2,17c0,7.5,1.3,13.8,3.9,19
			c2.4,4.9,6.4,8.9,11.3,11.3c4.9,2.4,10.2,3.7,15.7,3.7c4.8,0,9.6-1,14.1-2.8c4.6-1.9,8.1-3.9,10.4-6v-15.9h-24.7 M733.4,623.2
			v-61.1h9.3v9.3c2.5-4.3,4.6-7.2,6.6-8.5c2-1.4,4.2-2.1,6.7-2.1c3.5,0,7.1,1.1,10.7,3.3l-3.6,9.6c-2.3-1.4-4.9-2.2-7.6-2.2
			c-2.2,0-4.4,0.7-6.1,2c-1.8,1.4-3.1,3.3-3.9,5.7c-1.2,3.9-1.8,8-1.7,12.1v32L733.4,623.2 M781.3,592.7c0,7.8,1.7,13.7,5.1,17.6
			c3.2,3.8,7.9,5.9,12.9,5.8c4.9,0.1,9.6-2.1,12.8-5.9c3.4-3.9,5.1-9.9,5.1-17.9c0-7.6-1.7-13.3-5.1-17.2s-7.7-5.8-12.8-5.8
			c-5.2,0-9.4,1.9-12.9,5.8C783,579,781.3,584.9,781.3,592.7 M770.7,592.7c0-11.3,3.2-19.7,9.4-25.1c5.2-4.5,11.7-6.8,19.2-6.8
			c8.4,0,15.3,2.7,20.6,8.2s8,13.1,8,22.8c0,7.9-1.2,14-3.5,18.5c-2.3,4.4-5.9,8.1-10.3,10.5c-4.5,2.5-9.6,3.8-14.7,3.7
			c-8.5,0-15.5-2.7-20.6-8.2C773.5,610.9,770.7,603,770.7,592.7 M881.7,623.2v-9c-4.2,6.6-11.5,10.6-19.4,10.4
			c-3.6,0-7-0.7-10.1-2.1c-3.1-1.4-5.4-3.1-6.9-5.2c-1.5-2.1-2.6-4.6-3.2-7.7c-0.4-2-0.6-5.2-0.6-9.7v-37.8h10.4V596
			c0,5.4,0.2,9,0.6,10.9c0.6,2.7,2,4.9,4.1,6.4c2.1,1.6,4.7,2.3,7.8,2.3c3.1,0,6.1-0.8,8.7-2.5c2.6-1.4,4.6-3.7,5.8-6.5
			c1.1-2.7,1.7-6.7,1.7-11.9v-32.7H891v61.1L881.7,623.2 M918.3,593c0,7.9,1.7,13.7,4.8,17.3c3.1,3.7,7,5.6,11.5,5.6
			c4.6,0,8.5-1.9,11.8-5.8s4.9-9.9,4.9-18.2c0-7.8-1.6-13.6-4.8-17.5c-3.2-3.9-7-5.8-11.4-5.8s-8.3,2.1-11.7,6.2
			c-3.4,4.1-5.1,10.1-5.1,18 M909,646.4V562h9.4v7.9c2.2-3.1,4.7-5.4,7.5-7s6.2-2.3,10.2-2.3c5.2,0,9.9,1.3,13.8,4
			c3.9,2.7,7,6.5,9,11.3c2,4.9,3.1,10.2,3.1,16.1c0,6.2-1.1,11.9-3.4,16.9c-2.2,5-5.5,8.8-9.8,11.5s-8.8,4-13.5,4
			c-3.4,0-6.5-0.7-9.3-2.2s-5-3.3-6.7-5.5v29.7H909 M292.5,651.7v8.8h30.4v63.1c3.4,0,10.8-3.3,10.8-10.1v-53c2.2,0,4-6.4,4-8.8
			L292.5,651.7L292.5,651.7z M305.1,674.5h5.4v27.4h-5.4V674.5z M320.5,698.2v-32.2h-25.4v44h12.6c2.3-0.3,4.5-1.1,6.4-2.4
			c1.2-0.7,2.2-1.6,3.2-2.6C319.1,703,320.5,700.7,320.5,698.2L320.5,698.2z M280.5,675.5c0,1.2-1,3.2-2.2,4.4l-0.8,0.8
			c-0.1,0.1-0.2,0.2-0.4,0.2h3.4v20.6h-4.1v-41.3h4.1v15V675.5z M265.7,651.7v71.8c5,0,10.6-4.5,10.6-9.5v-3.8h6
			c4-0.2,8.6-5.8,8.6-8.6v-16c0-3-3.4-5.2-5-6.4c1.6-1.4,5-3.8,5-6.8v-20.8L265.7,651.7z M357.2,659.8h15.2v9.3h-15.2V659.8z
			 M357.2,677.3h15.2v9.4h-15.2V677.3z M385.3,677.3h5.5c0.9,0,1.7-0.3,2.4-0.8c1-0.6,5.9-6.7,6.5-7.3h-14.4v-9.3h15.6v26.8h-15.6
			L385.3,677.3L385.3,677.3z M385.3,715.3v-6.7h21.3c3.1,0,5.9-5.3,7.4-8.1h-28.9v-5.8h16c4.6,0,12-6.3,12.2-9.6v-33.5h-68.7v43.1
			h27.6v5.8h-27.6v8.1h27.6v6.7h-28.4v8.3h64.4c2.6,0,5.1-5.3,7.1-8.3L385.3,715.3L385.3,715.3z M436.1,660.9h15.2v23.9h-15.2V660.9
			z M463.8,660.9h14.5v23.9h-14.5V660.9z M436,714.3V694h43.9c4,0,11.1-6.6,11.3-9.9v-32.5H423v61.9c0,5,3,10.1,8.5,10.1h52
			c3.9,0,8.6-6.3,9.4-9.4h-56.9L436,714.3z M514.6,660.9h15.2v23.9h-15.2V660.9z M542.4,660.9h14.5v23.9h-14.5V660.9z M514.5,714.3
			V694h43.9c4,0,11.1-6.6,11.3-9.9v-32.5h-68.2v61.9c0,5,3,10.1,8.5,10.1h52c3.9,0,8.6-6.3,9.5-9.4L514.5,714.3L514.5,714.3z
			 M616.7,699.4v-2.3h5.1v1.9h30.9c0,0-0.8,4.2-7.4,4.2h-23.1v11.2c0,8.5-5.4,9.5-5.4,9.5v-20.4h-36.9v-4.2L616.7,699.4 M594.4,710
			h5.5l-7.5,9.3c-1.7,1.9-4,5-7.4,5l-2.5,0L594.4,710"/>
		<path class="st1" d="M641.6,710h-5.5l7.5,9.3c1.7,1.9,4,5,7.4,5l2.5,0L641.6,710 M616.8,665.5h-26.2l0-2.3l1.3-1.9l1.8-2.2h23.1
			V665.5z M590.6,670h26.2v6.4h-26.2V670z M590.6,680.6h26.2v6.6h-26.2V680.6z M645.3,658.7c6.6,0,7.8-4.2,7.8-4.2h-30.9l2.2-2.9
			h-5.1l-2.6,3.3h-20.8l2.5-3.3h-5.3l-13.1,17.1h5.6v23.4c0,0,0.6,0.1,1.3,0c8.3,0,8.9-1.1,8.9-1.1h49.3c6.6,0,7.2-3.9,7.2-3.9
			h-30.7v-6.8h23.5c6.5,0,7.4-4.1,7.4-4.1h-31v-6.7h23.5c6.5,0,7.4-4.2,7.4-4.2h-31v-6.5H645.3z M729.5,715.1c0,2.6-0.6,4.7-4,4.7
			h-53.7v-63.7h57.7V715.1L729.5,715.1z M667.2,651.9v72.6h61.1c4.6,0,6.4-4.4,6.1-8.9v-63.7H667.2z M695.7,682.8l-15.4,27.9
			c0,0,5.2,1,7.5-3.9l13.2-23.9L695.7,682.8 M713.8,704.9c0,1.5-0.5,2.3-1.6,2.3h-5.1v4.1h6.6c4.1,0,5.4-1.5,5.2-6v-27.1
			c5.1,0,5.4-4.3,5.4-4.3l-5.4,0.1v-9.4h-5v9.4h-34.7v4.5h34.7L713.8,704.9"/>
	</g>
</g>
</svg>
