<?xml version="1.0" encoding="UTF-8" standalone="no"?>
<!DOCTYPE svg PUBLIC "-//W3C//DTD SVG 1.1//EN" "http://www.w3.org/Graphics/SVG/1.1/DTD/svg11.dtd">
<svg width="100%" height="100%" viewBox="0 0 855 1342" version="1.1" xmlns="http://www.w3.org/2000/svg" xmlns:xlink="http://www.w3.org/1999/xlink" xml:space="preserve" xmlns:serif="http://www.serif.com/" style="fill-rule:evenodd;clip-rule:evenodd;stroke-linejoin:round;stroke-miterlimit:2;">
    <g transform="matrix(4.16667,0,0,4.16667,0,0)">
        <path d="M102.278,320.971C101.679,320.81 99.917,318.977 98.393,316.692L98.164,316.35L97.762,316.257C30.964,300.685 -6.246,198.143 2.136,115.855C3.107,106.353 4.696,97.406 6.872,89.121C9.102,80.642 11.985,72.718 15.442,65.569C19.302,57.585 23.957,50.581 29.279,44.751C40.375,32.594 54.092,26.056 68.946,25.845C69.287,25.837 70.251,25.81 70.335,24.916C72.935,19.62 79.626,15.92 84.621,15.224L85.318,15.127L85.489,14.442C85.627,13.885 88.808,1.348 102.291,1.348C115.812,1.348 119.063,14.244 119.097,14.38L119.263,15.069L119.965,15.166C124.967,15.866 131.62,19.613 134.232,24.897C134.302,25.809 135.272,25.837 135.6,25.845C150.47,26.056 164.187,32.594 175.282,44.751C181.382,51.366 186.643,59.683 190.923,69.48L191.786,71.514C197.162,84.422 200.742,99.341 202.425,115.855C210.802,198.146 173.591,300.685 106.799,316.257L106.397,316.35L106.168,316.692C104.644,318.977 102.881,320.807 102.278,320.971Z" style="fill:url(#_Radial1);"/>
        <path d="M200.666,161.877C199.509,175.346 197.308,188.73 194.068,201.854C190.898,214.697 186.73,227.308 181.447,239.44C175.981,251.992 169.172,264.21 160.901,275.136C159.177,277.413 157.391,279.644 155.534,281.815C152.811,285 149.921,288.044 146.864,290.912C143.15,294.398 139.145,297.652 134.901,300.564C128.216,305.152 120.923,308.841 113.271,311.362C111.722,311.873 111.676,311.963 109.83,312.378C111.33,309.169 112.442,305.296 112.281,300.947C115.069,299.957 117.785,298.769 120.417,297.418C132.091,291.427 142.205,282.257 150.398,272.085C158.558,261.954 165.167,250.573 170.596,238.834C176,227.149 180.278,214.95 183.595,202.515C187.01,189.717 189.409,176.643 190.779,163.469C192.133,150.454 192.502,137.309 191.623,124.249C190.665,110.013 188.276,95.801 183.51,82.32C179.804,71.841 174.608,61.57 167.045,53.327C159.275,44.856 148.827,38.993 137.131,38.973C129.313,38.96 123.924,44.926 122.316,52.567C121.009,58.714 122.281,66.37 126.18,71.374C127.83,73.079 127.563,73.559 127.053,73.564C123.729,73.595 106.764,70.966 108.219,54.323C109.16,43.478 114.46,36.343 120.512,32.042C126.003,28.589 132.246,28.184 134.823,28.184C137.985,28.184 141.148,28.378 144.258,28.955C145.516,29.131 146.901,29.592 148.062,29.907C149.339,30.254 150.602,30.653 151.847,31.102C154.297,31.987 156.678,33.064 158.965,34.31C164.453,37.298 169.28,41.233 173.578,45.748C178.188,50.59 181.988,56.236 185.18,62.093C188.303,67.822 190.826,73.849 192.927,80.021C195.219,86.753 196.912,93.691 198.189,100.683C199.474,107.713 200.328,114.817 200.917,121.938C202.016,135.204 201.806,148.622 200.666,161.877ZM103.431,317.061C103.386,317.114 102.848,317.768 102.28,317.835C101.712,317.768 101.174,317.114 101.129,317.061C98.242,313.437 93.937,306.402 95.559,298.005C96.017,295.641 99.993,294.574 102.28,294.549C104.566,294.574 108.542,295.641 109,298.005C110.623,306.402 106.317,313.437 103.431,317.061ZM91.288,311.362C83.636,308.841 76.343,305.152 69.659,300.564C65.415,297.652 61.409,294.398 57.695,290.912C54.639,288.044 51.749,285 49.025,281.815C47.169,279.644 45.382,277.413 43.659,275.136C35.387,264.21 28.579,251.992 23.112,239.44C17.83,227.308 13.661,214.697 10.491,201.854C7.251,188.73 5.051,175.346 3.893,161.877C2.754,148.622 2.543,135.204 3.642,121.938C4.232,114.817 5.085,107.713 6.37,100.683C7.648,93.691 9.34,86.753 11.632,80.021C13.733,73.849 16.256,67.822 19.379,62.093C22.572,56.236 26.371,50.59 30.981,45.748C35.279,41.233 40.106,37.298 45.594,34.31C47.882,33.064 50.262,31.987 52.713,31.102C53.957,30.653 55.22,30.254 56.497,29.907C57.658,29.592 59.118,29.114 60.301,28.955C63.411,28.378 66.574,28.184 69.736,28.184C72.314,28.184 78.556,28.589 84.047,32.042C90.1,36.343 95.4,43.478 96.34,54.323C97.795,70.966 80.831,73.595 77.506,73.564C76.996,73.559 76.73,73.079 78.379,71.374C82.278,66.37 83.55,58.714 82.243,52.567C80.635,44.926 75.245,38.96 67.429,38.973C55.732,38.993 45.284,44.856 37.514,53.327C29.952,61.57 24.755,71.841 21.05,82.32C16.283,95.801 13.895,110.013 12.936,124.249C12.057,137.309 12.426,150.454 13.78,163.469C15.151,176.643 17.55,189.717 20.964,202.515C24.281,214.95 28.559,227.149 33.963,238.834C39.392,250.573 46.001,261.954 54.162,272.085C62.355,282.257 72.468,291.427 84.142,297.418C86.774,298.769 89.49,299.957 92.278,300.947C92.117,305.296 93.229,309.169 94.73,312.378C92.883,311.963 92.838,311.873 91.288,311.362ZM167.289,130.383C164.996,116.385 158.06,97.962 143.051,88.508C160.829,78.075 168.538,66.627 170.3,62.049C180.219,76.138 187.064,97.286 188.669,124.238C185.039,126.132 177.332,129.504 167.289,130.383ZM145.992,235.061C152.175,224.146 157.413,212.672 161.229,200.712C164.025,191.944 166.071,182.889 167.345,173.725C168.69,164.043 169.174,154.239 168.771,144.524C168.66,141.822 168.356,137.49 167.598,132.334C177.294,131.482 184.776,128.425 188.789,126.406C190.716,165.911 182.025,209.733 164.95,243.686C161.761,243.061 152.303,240.8 145.992,235.061ZM113.844,274.164C122.414,268.009 133.649,256.352 144.982,236.812C151.342,242.414 160.224,244.734 164.007,245.508C154.17,264.525 141.664,280.279 126.885,290.216C124.302,288.217 116.949,282.037 113.844,274.164ZM92.427,275.359C97,278.692 101.672,280.588 102.28,280.782C102.888,280.588 107.559,278.692 112.133,275.359C115.36,283.019 122.092,288.95 125.155,291.366C120.932,294.04 116.538,296.26 111.966,297.932C111.937,297.77 111.925,297.609 111.898,297.445C110.953,292.582 104.601,291.587 102.28,291.581C99.958,291.587 93.606,292.582 92.662,297.445C92.635,297.609 92.622,297.77 92.593,297.932C88.021,296.26 83.627,294.04 79.404,291.366C82.468,288.95 89.199,283.019 92.427,275.359ZM59.577,236.812C70.91,256.352 82.145,268.009 90.715,274.164C87.61,282.037 80.257,288.217 77.674,290.216C62.895,280.279 50.39,264.525 40.552,245.508C44.336,244.734 53.218,242.414 59.577,236.812ZM15.891,124.238C17.495,97.286 24.34,76.138 34.259,62.049C36.021,66.627 43.73,78.075 61.508,88.508C46.398,97.6 39.563,116.385 37.27,130.383C27.228,129.504 19.52,126.132 15.891,124.238ZM36.961,132.334C36.203,137.49 35.9,141.822 35.788,144.524C35.386,154.239 35.869,164.043 37.215,173.725C38.488,182.889 40.534,191.944 43.331,200.712C47.146,212.672 52.384,224.146 58.567,235.061C52.256,240.8 42.798,243.061 39.61,243.686C22.534,209.733 13.843,165.911 15.77,126.406C19.784,128.425 27.265,131.482 36.961,132.334ZM95.425,19.339C98.267,21.092 100.498,23.857 101.295,27.1C101.531,28.058 101.894,28.63 102.28,28.63C102.666,28.63 103.029,28.058 103.265,27.1C104.062,23.857 106.292,21.092 109.135,19.339C117.734,14.037 127.485,17.546 131.389,25.179C129.396,25.517 127.635,26.006 125.244,26.723C121.779,27.918 118.918,29.381 116.483,31.594C111.014,36.563 106.172,44.258 105.274,54.063C102.818,81.014 133.73,76.782 135.288,76.651C139.283,76.651 142.299,70.361 142.299,62.022C142.299,53.678 139.202,47.386 135.288,47.386C132.893,47.386 128.748,49.301 128.363,56.77C128.093,62.018 130.66,68.994 133.978,69.431C135.697,69.657 137.271,66.614 137.762,63.532C138.198,60.849 137.97,56.642 135.575,56.042C134.82,55.85 134.057,56.315 133.865,57.074C133.692,57.759 135.349,58.929 135.288,62.018C135.193,66.631 130.558,64.325 131.179,57.003C131.738,50.507 135.055,50.92 135.193,50.914C137.049,50.914 139.843,54.781 139.843,62.022C139.843,68.464 136.732,75.397 130.793,71.777C125.791,68.119 123.816,59.697 125.199,53.181C125.828,50.189 128.408,42.049 136.732,42.049C148.744,42.049 159.938,48.359 168.868,60.1C167.889,63.249 161.699,75.219 142.022,86.676C141.6,86.889 140.98,87.249 140.946,87.235C134.941,84.792 129.308,83.268 122.759,83.641C116.963,83.972 111.305,85.033 105.668,86.354C104.557,86.614 103.421,86.907 102.28,86.907C101.139,86.907 100.002,86.614 98.891,86.354C93.254,85.033 87.596,83.972 81.8,83.641C75.252,83.268 69.618,84.792 63.614,87.235C63.579,87.249 62.959,86.889 62.537,86.676C42.86,75.219 36.67,63.249 35.692,60.1C44.622,48.359 55.815,42.049 67.827,42.049C76.151,42.049 78.731,50.189 79.36,53.181C80.743,59.697 78.769,68.119 73.766,71.777C67.827,75.397 64.716,68.464 64.716,62.022C64.716,54.781 67.51,50.914 69.367,50.914C69.504,50.92 72.821,50.507 73.381,57.003C74.001,64.325 69.367,66.631 69.271,62.018C69.211,58.929 70.867,57.759 70.695,57.074C70.502,56.315 69.739,55.85 68.984,56.042C66.589,56.642 66.361,60.849 66.797,63.532C67.288,66.614 68.862,69.657 70.581,69.431C73.898,68.994 76.466,62.018 76.196,56.77C75.811,49.301 71.666,47.386 69.271,47.386C65.358,47.386 62.261,53.678 62.261,62.022C62.261,70.361 65.276,76.651 69.271,76.651C70.83,76.782 101.741,81.014 99.285,54.063C98.387,44.258 93.545,36.563 88.076,31.594C85.642,29.381 82.78,27.918 79.315,26.723C76.925,26.006 75.164,25.517 73.17,25.179C77.074,17.546 86.825,14.037 95.425,19.339ZM102.28,3.54C114.123,3.539 116.732,13.602 116.75,13.707C110.864,14.106 105.375,17.671 102.537,22.811C102.494,22.889 102.39,23.155 102.28,23.155C102.154,23.155 102.066,22.889 102.023,22.811C99.184,17.671 93.695,14.106 87.809,13.707C87.827,13.602 90.437,3.539 102.28,3.54ZM203.371,115.757C202.68,108.952 201.645,102.179 200.193,95.495C198.858,89.343 197.17,83.264 195.055,77.334C192.828,71.088 190.129,64.952 186.855,59.181C183.779,53.758 180.167,48.663 175.962,44.056C164.754,31.777 150.911,25.008 135.56,24.79L135.225,24.792C132.734,19.333 125.863,14.895 119.892,14.064C119.892,14.064 116.683,0.385 102.28,0.318C87.876,0.385 84.668,14.064 84.668,14.064C78.696,14.895 71.825,19.333 69.335,24.792L68.999,24.79C53.648,25.008 39.805,31.777 28.597,44.056C24.393,48.663 20.781,53.758 17.705,59.181C14.431,64.952 11.732,71.088 9.504,77.334C7.389,83.264 5.701,89.343 4.366,95.495C2.915,102.179 1.88,108.952 1.188,115.757C-7.302,199.108 30.187,301.561 97.616,317.281C98.642,318.818 100.99,322 102.28,322C103.57,322 105.917,318.818 106.943,317.281C174.372,301.561 211.862,199.108 203.371,115.757Z" style="fill:rgb(35,31,32);fill-rule:nonzero;"/>
        <path d="M165.103,145.052C164.686,135.144 161.792,104.895 141.209,91.772C136.759,88.942 130.917,87.692 125.046,87.311C114.939,86.652 107.449,90.516 102.406,90.657L102.154,90.657C97.11,90.516 89.561,86.652 79.455,87.311C73.589,87.692 67.8,88.942 63.351,91.772C42.771,104.895 39.874,135.144 39.457,145.052C37.986,180.099 49.067,207.47 52.502,215.023C66.747,246.385 83.939,268.554 100.92,276.094L102.277,276.702L103.646,276.094C120.618,268.554 137.818,246.385 152.055,215.023C155.49,207.47 166.572,180.099 165.103,145.052Z" style="fill:rgb(205,20,66);fill-rule:nonzero;"/>
        <path d="M132.858,121.267L132.858,128.115L134.242,127.904C134.263,127.9 134.525,127.866 134.889,127.866C135.648,127.866 137.041,127.998 137.913,128.888C138.734,129.723 138.995,131.132 138.702,132.982C138.676,133.051 124.928,192.652 122.313,204.011C119.303,189.649 102.921,111.228 102.921,111.228L102.853,110.895L99.604,110.895L99.552,111.247C99.552,111.247 87.7,187.589 85.33,202.868C82.241,189.642 69.034,133.051 69.034,133.051C68.996,132.689 68.981,132.344 68.981,132.023C68.981,130.421 69.359,129.243 70.117,128.52C71.12,127.555 72.641,127.691 72.776,127.705L74.136,127.884L74.146,121.267L51.145,121.267L51.145,127.74L52.162,127.9C52.666,127.998 55.23,128.619 55.652,130.965C55.658,131.004 82.563,246.465 83.706,251.376L83.785,251.699L87.832,251.699L87.879,251.349C88.006,250.55 98.958,178.888 101.005,165.466C103.606,178.83 117.552,250.572 117.702,251.362L117.771,251.699L121.382,251.699L148.088,130.897C148.704,128.389 150.905,128.121 151.827,128.121C151.96,128.121 152.05,128.126 152.094,128.132L153.414,128.238L153.414,121.267L132.858,121.267Z" style="fill:white;fill-rule:nonzero;"/>
    </g>
    <defs>
        <radialGradient id="_Radial1" cx="0" cy="0" r="1" gradientUnits="userSpaceOnUse" gradientTransform="matrix(133.798,0,0,133.798,102.28,161.159)"><stop offset="0" style="stop-color:white;stop-opacity:1"/><stop offset="0.3" style="stop-color:rgb(251,248,244);stop-opacity:1"/><stop offset="0.8" style="stop-color:rgb(212,185,148);stop-opacity:1"/><stop offset="1" style="stop-color:rgb(209,181,142);stop-opacity:1"/></radialGradient>
    </defs>
</svg>
