<?xml version="1.0" encoding="UTF-8" standalone="no"?>
<!DOCTYPE svg PUBLIC "-//W3C//DTD SVG 1.1//EN" "http://www.w3.org/Graphics/SVG/1.1/DTD/svg11.dtd">
<svg width="100%" height="100%" viewBox="0 0 800 600" version="1.1" xmlns="http://www.w3.org/2000/svg" xmlns:xlink="http://www.w3.org/1999/xlink" xml:space="preserve" xmlns:serif="http://www.serif.com/" style="fill-rule:evenodd;clip-rule:evenodd;stroke-linejoin:round;stroke-miterlimit:2;">
    <g transform="matrix(2.45312,0,0,2.45312,105.088,104.887)">
        <g transform="matrix(1,0,0,1,-32,-32)">
            <path d="M52,42L48,42L48,38L46,38L46,42L42,42L42,44L46,44L46,48L48,48L48,44L52,44L52,42Z" style="fill:url(#_Linear1);fill-rule:nonzero;"/>
            <path d="M41.834,18L14.166,18C13.186,18 12.786,19.26 13.587,19.826L26.848,29.187C27.539,29.675 28.463,29.675 29.154,29.187L42.415,19.826C43.215,19.26 42.815,18 41.834,18Z" style="fill:url(#_Linear2);fill-rule:nonzero;"/>
            <path d="M50,32.426L50,17C50,15.346 48.654,14 47,14L9,14C7.346,14 6,15.346 6,17L6,45C6,46.654 7.346,48 9,48L37.214,48C39.039,51.556 42.735,54 47,54C53.065,54 58,49.065 58,43C58,37.976 54.61,33.737 50,32.426ZM47,32C45.655,32 44.372,32.254 43.18,32.698L37.362,28.542L48,20.943L48,32.051C47.67,32.021 47.337,32 47,32ZM9,16L47,16C47.552,16 48,16.448 48,17L48,18.486L29.745,31.526C28.702,32.27 27.298,32.27 26.255,31.526L8,18.486L8,17C8,16.448 8.448,16 9,16ZM18.638,28.542L8,36.141L8,20.943L18.638,28.542ZM9,46C8.448,46 8,45.552 8,45L8,38.598L20.358,29.771L25.093,33.153C25.962,33.773 26.982,34.084 28,34.084C29.018,34.084 30.038,33.773 30.907,33.152L35.641,29.77L41.146,33.703C38.326,35.485 36.367,38.505 36.05,42L14,42L14,44L36.051,44C36.113,44.688 36.243,45.354 36.426,46L9,46ZM47,52C42.037,52 38,47.963 38,43C38,38.037 42.037,34 47,34C51.963,34 56,38.037 56,43C56,47.963 51.963,52 47,52Z" style="fill:url(#_Linear3);fill-rule:nonzero;"/>
            <rect x="8" y="10" width="40" height="2" style="fill:url(#_Linear4);fill-rule:nonzero;"/>
        </g>
    </g>
    <g transform="matrix(1.07651,0,0,1.07651,403.758,297.632)">
        <g transform="matrix(1,0,0,1,-333.3,-45.5505)">
            <g id="svgGroup">
                <path d="M133.4,38.6L135,28.7C136.381,27.706 137.841,26.827 139.366,26.072C140.099,25.707 140.844,25.366 141.6,25.05C144.067,24.017 147.367,23.5 151.5,23.5C161.1,23.5 165.9,28.467 165.9,38.4L165.9,57.6C165.892,58.509 166.013,59.415 166.26,60.29C166.6,61.48 167.233,62.567 168.1,63.45C169.147,64.51 170.494,65.224 171.959,65.496C172.664,65.636 173.381,65.704 174.1,65.7C175.219,65.713 176.333,65.544 177.398,65.201C179.067,64.643 180.519,63.576 181.55,62.15C182.608,60.716 183.464,59.143 184.096,57.477C184.609,56.136 185.011,54.756 185.3,53.35C186.033,49.85 186.4,46.4 186.4,43C186.413,40.333 186.235,37.669 185.868,35.028C185.456,32.174 184.805,29.585 183.916,27.261C183.169,25.272 182.173,23.387 180.95,21.65C179.028,18.906 176.681,16.487 173.996,14.483C171.984,13.001 169.783,11.796 167.45,10.9C164.326,9.68 161.081,8.8 157.769,8.273C155.761,7.96 153.732,7.802 151.7,7.8C147.993,7.775 144.299,8.25 140.718,9.211C137.733,10.026 134.868,11.232 132.2,12.8C126.533,16.133 122.1,20.717 118.9,26.55C116.411,31.142 114.869,36.187 114.364,41.385C114.186,43.084 114.098,44.792 114.1,46.5C114.078,49.895 114.44,53.283 115.178,56.597C115.993,60.253 117.403,63.75 119.35,66.95C122.85,72.65 127.45,77.017 133.15,80.05C138.85,83.083 145.033,84.6 151.7,84.6C155.408,84.627 159.104,84.185 162.701,83.286C166.709,82.276 170.502,80.553 173.9,78.2L175.9,81.8C173.415,83.427 170.763,84.783 167.989,85.846C166.841,86.29 165.678,86.692 164.5,87.05C160.233,88.35 155.767,89 151.1,89C146.206,89.037 141.341,88.243 136.713,86.653C134.367,85.832 132.103,84.793 129.95,83.55C123.65,79.917 118.65,74.917 114.95,68.55C111.908,63.262 110.079,57.363 109.595,51.282C109.464,49.792 109.399,48.296 109.4,46.8C109.353,40.976 110.428,35.198 112.565,29.78C113.214,28.16 113.96,26.58 114.8,25.05C118.4,18.483 123.367,13.233 129.7,9.3C136.033,5.367 143.3,3.4 151.5,3.4C155.495,3.419 159.471,3.958 163.327,5.003C165.352,5.543 167.346,6.193 169.3,6.95C175.195,9.242 180.361,13.088 184.248,18.078C184.452,18.333 184.652,18.59 184.85,18.85C186.982,21.711 188.563,24.943 189.512,28.382C190.285,31.059 190.793,33.994 191.035,37.187C191.147,38.689 191.202,40.194 191.2,41.7C191.188,45.704 190.71,49.694 189.774,53.587C189.702,53.892 189.627,54.196 189.55,54.5C189.007,56.696 188.195,58.816 187.134,60.814C186.247,62.469 185.161,64.009 183.9,65.4C181.811,67.692 178.978,69.175 175.904,69.586C174.943,69.732 173.972,69.803 173,69.8C170.155,69.8 167.797,69.217 165.924,68.05C165.474,67.77 165.047,67.452 164.65,67.1C162.921,65.56 161.667,63.56 161.034,61.333C160.903,60.894 160.792,60.449 160.7,60C159.784,61.718 158.608,63.284 157.214,64.643C156.426,65.418 155.586,66.139 154.7,66.8C152.39,68.521 149.633,69.541 146.759,69.737C146.24,69.779 145.72,69.8 145.2,69.8C142.267,69.8 139.267,68.917 136.2,67.15C133.357,65.512 131.832,62.6 131.625,58.413C131.608,58.076 131.6,57.738 131.6,57.4C131.592,56.315 131.695,55.233 131.908,54.169C132.183,52.844 132.642,51.681 133.285,50.679C133.694,50.04 134.187,49.459 134.75,48.95C136.278,47.584 138.06,46.533 139.995,45.857C140.878,45.542 141.782,45.289 142.7,45.1C145.9,44.433 149.133,44.1 152.4,44.1C153.733,44.1 155.1,44.133 156.5,44.2C157.9,44.267 159.2,44.333 160.4,44.4L160.4,39.4C160.408,38.151 160.284,36.905 160.029,35.683C159.701,34.081 159.062,32.558 158.15,31.2C157.298,29.973 156.073,29.053 154.657,28.578C153.837,28.281 152.915,28.082 151.892,27.98C151.33,27.925 150.765,27.899 150.2,27.9C146.133,27.9 142.5,29 139.3,31.2L137.5,39.1L133.4,38.6ZM53,64.2L53,68.8L31,68.8L31,64.2L39.3,64.2L39.3,42.1C39.306,40.866 39.232,39.633 39.078,38.409C38.721,35.704 37.936,33.608 36.721,32.122C36.528,31.885 36.321,31.661 36.1,31.45C34.263,29.701 31.875,28.644 29.345,28.46C28.898,28.419 28.449,28.399 28,28.4C26.146,28.378 24.305,28.721 22.583,29.409C20.8,30.15 19.201,31.274 17.9,32.7C16.874,33.785 15.992,34.998 15.277,36.309C14.322,38.06 13.783,40.007 13.7,42L13.7,64.2L21.9,64.2L21.9,68.8L0,68.8L0,64.2L8.2,64.2L8.2,4.6L0,4.6L0,0L13.7,0L13.7,32.8C15.233,29.933 17.35,27.667 20.05,26C22.008,24.807 24.191,24.031 26.462,23.72C27.501,23.571 28.55,23.497 29.6,23.5C31.393,23.483 33.178,23.743 34.891,24.271C36.992,24.934 38.912,26.073 40.5,27.6C43.367,30.333 44.8,34.733 44.8,40.8L44.8,64.2L53,64.2ZM473,24.4L473,29.1L467.4,29.1L451.4,68.8L444.9,85.5L453,85.5L453,90.1L431,90.1L431,85.5L439.6,85.5L446,68.5L429.7,29.1L424.2,29.1L424.2,24.4L444.2,24.4L444.2,29.1L435.5,29.1L448.9,61.4L449.5,61.4L461.7,29.1L453.6,29.1L453.6,24.4L473,24.4ZM622.6,24.4L622.6,29.1L617,29.1L601,68.8L594.5,85.5L602.6,85.5L602.6,90.1L580.6,90.1L580.6,85.5L589.2,85.5L595.6,68.5L579.3,29.1L573.8,29.1L573.8,24.4L593.8,24.4L593.8,29.1L585.1,29.1L598.5,61.4L599.1,61.4L611.3,29.1L603.2,29.1L603.2,24.4L622.6,24.4ZM571.2,64.2L571.2,68.8L552.5,68.8L552.5,64.2L558.9,64.2L547.5,49.9L536,64.2L541.9,64.2L541.9,68.8L524.1,68.8L524.1,64.2L530.1,64.2L544.6,46.6L530.3,29.1L524,29.1L524,24.4L543.6,24.4L543.6,29.1L536.8,29.1L547.8,43.3L559.2,29.1L553.3,29.1L553.3,24.4L570.6,24.4L570.6,29.1L565.2,29.1L550.8,46.5L565.3,64.2L571.2,64.2ZM368.2,64.2L368.2,68.8L346.3,68.8L346.3,64.2L354.5,64.2L354.5,42.1C354.5,37.609 353.675,34.309 352.025,32.202C351.818,31.936 351.592,31.685 351.35,31.45C349.401,29.552 346.801,28.465 344.081,28.412C343.887,28.404 343.694,28.4 343.5,28.4C341.916,28.385 340.339,28.603 338.819,29.048C336.62,29.704 334.642,30.95 333.1,32.65C331.949,33.881 330.996,35.283 330.274,36.806C329.499,38.467 329.066,40.268 329,42.1L329,64.2L337.2,64.2L337.2,68.8L315.2,68.8L315.2,64.2L323.5,64.2L323.5,29.1L315.1,29.1L315.1,24.4L329,24.4L329,32.6C332.267,26.533 337.533,23.5 344.8,23.5C346.593,23.483 348.378,23.743 350.091,24.271C352.192,24.934 354.112,26.073 355.7,27.6C358.567,30.333 360,34.733 360,40.8L360,64.2L368.2,64.2ZM421.4,24.4L421.4,29.1L413.9,29.1L413.9,68.6C413.917,70.901 413.678,73.196 413.186,75.444C412.445,78.711 411.126,81.534 409.231,83.913C408.919,84.305 408.592,84.684 408.25,85.05C405.451,88.03 401.747,90.006 397.713,90.673C396.092,90.965 394.447,91.108 392.8,91.1C390.482,91.117 388.173,90.812 385.938,90.196C384.021,89.658 382.19,88.851 380.5,87.8C377.056,85.681 374.617,82.25 373.748,78.3C373.732,78.233 373.716,78.167 373.7,78.1L378.1,76.1C378.477,77.444 379.045,78.726 379.785,79.909C380.856,81.607 382.364,82.985 384.15,83.9C385.918,84.828 387.811,85.494 389.771,85.877C390.901,86.092 392.049,86.2 393.2,86.2C395.035,86.22 396.86,85.922 398.594,85.32C400.722,84.553 402.63,83.276 404.15,81.6C406.538,79.015 407.92,75.46 408.295,70.934C408.366,70.058 408.401,69.179 408.4,68.3L408.4,59.5C407.139,61.878 405.437,63.993 403.385,65.734C403.08,65.997 402.768,66.252 402.45,66.5C400.115,68.32 397.075,69.312 393.332,69.476C392.955,69.492 392.577,69.5 392.2,69.5C389.466,69.534 386.757,68.971 384.264,67.849C382.197,66.886 380.327,65.547 378.75,63.9C376.682,61.737 375.181,59.095 374.381,56.211C373.66,53.758 373.3,50.987 373.3,47.9C373.3,44.1 373.967,40.317 375.3,36.55C376.633,32.783 378.75,29.667 381.65,27.2C383.523,25.631 385.75,24.541 388.138,24.026C389.65,23.678 391.29,23.503 393.058,23.5C393.072,23.5 393.086,23.5 393.1,23.5C396.367,23.5 399.367,24.167 402.1,25.5C404.833,26.833 406.933,28.833 408.4,31.5L408.4,24.4L421.4,24.4ZM666.6,55.5L664.4,68.8L627.5,68.8L627.4,65.2L656.5,29.1L633.4,29.1L632.3,38.5L627.7,37.9L628.8,24.4L663.6,24.4L663.7,28L634.7,64.2L659.8,64.2L662.2,54.7L666.6,55.5ZM254.7,25.9L256.3,35.8L251.7,36.4L250,28.8C249.44,28.653 248.869,28.549 248.293,28.488C247.731,28.428 247.166,28.399 246.6,28.4C244.134,28.357 241.767,29.392 240.125,31.233C239.869,31.51 239.627,31.799 239.4,32.1C238.214,33.69 237.395,35.524 237.002,37.468C236.726,38.794 236.591,40.146 236.6,41.5L236.6,64.2L247.5,64.2L247.5,68.8L222.8,68.8L222.8,64.2L231.1,64.2L231.1,29.1L222.7,29.1L222.7,24.4L236.3,24.4L236.3,32.3C237.167,29.833 238.633,27.767 240.7,26.1C242.767,24.433 245,23.6 247.4,23.6C249.711,23.6 251.641,24.017 253.191,24.851C253.733,25.141 254.239,25.493 254.7,25.9ZM79.2,64.2L79.2,68.8L57.2,68.8L57.2,64.2L65.5,64.2L65.5,29.1L57.1,29.1L57.1,24.4L71,24.4L71,64.2L79.2,64.2ZM499.3,64.2L499.3,68.8L477.3,68.8L477.3,64.2L485.6,64.2L485.6,29.1L477.2,29.1L477.2,24.4L491.1,24.4L491.1,64.2L499.3,64.2ZM308.1,46.6C308.1,53.267 306.167,58.8 302.3,63.2C299.221,66.705 294.957,68.959 290.326,69.528C289.026,69.713 287.714,69.804 286.4,69.8C284.167,69.821 281.942,69.537 279.787,68.954C276.296,68.01 273.176,66.019 270.85,63.25C267.949,59.8 266.116,55.578 265.575,51.103C265.389,49.71 265.297,48.306 265.3,46.9C265.274,43.941 265.709,40.997 266.59,38.172C267.498,35.327 268.925,32.675 270.8,30.35C273.532,26.954 277.419,24.677 281.718,23.955C283.394,23.643 285.095,23.491 286.8,23.5C288.936,23.481 291.067,23.729 293.142,24.238C296.926,25.137 300.297,27.292 302.7,30.35C306.012,34.56 307.892,39.721 308.064,45.075C308.088,45.583 308.1,46.091 308.1,46.6ZM302.2,46.5C302.214,44.514 301.993,42.534 301.54,40.6C300.944,38.038 299.805,35.634 298.2,33.55C296.109,30.848 293.033,29.079 289.646,28.629C288.638,28.473 287.62,28.396 286.6,28.4C284.981,28.384 283.368,28.592 281.806,29.02C279.099,29.762 276.719,31.394 275.05,33.65C273.169,36.18 271.933,39.13 271.448,42.244C271.211,43.684 271.095,45.141 271.1,46.6C271.083,48.804 271.365,51 271.939,53.128C272.572,55.442 273.626,57.619 275.05,59.55C277.193,62.482 280.483,64.37 284.095,64.742C284.926,64.849 285.762,64.902 286.6,64.9C288.221,64.916 289.837,64.705 291.4,64.274C294.124,63.518 296.518,61.872 298.2,59.6C300.1,57.052 301.35,54.078 301.843,50.938C302.086,49.471 302.205,47.987 302.2,46.5ZM408.4,50.6L408.4,41.1C408.42,39.455 408.11,37.823 407.488,36.3C406.768,34.615 405.658,33.124 404.25,31.95C401.483,29.583 398.2,28.4 394.4,28.4C388.8,28.4 384.833,30.4 382.5,34.4C380.167,38.4 379,42.733 379,47.4C379,51.203 379.601,54.382 380.803,56.938C381.383,58.19 382.158,59.342 383.1,60.35C385.833,63.25 389.167,64.7 393.1,64.7C394.974,64.721 396.837,64.404 398.599,63.766C400.642,62.998 402.475,61.759 403.95,60.15C406.721,57.184 408.2,54.074 408.389,50.821C408.393,50.747 408.397,50.674 408.4,50.6ZM160.4,51.9L160.4,48C159.577,47.914 158.753,47.844 157.927,47.789C157.402,47.754 156.876,47.724 156.35,47.7C154.917,47.633 153.467,47.6 152,47.6C148.333,47.6 144.983,48.167 141.95,49.3C139.92,49.989 138.362,51.648 137.801,53.718C137.559,54.54 137.427,55.461 137.404,56.48C137.401,56.587 137.4,56.693 137.4,56.8C137.393,57.618 137.472,58.434 137.635,59.236C138.042,61.154 138.981,62.559 140.45,63.45C141.487,64.089 142.609,64.58 143.782,64.907C144.733,65.167 145.714,65.3 146.7,65.3C150.033,65.3 153.15,64.033 156.05,61.5C158.664,59.309 160.237,56.114 160.378,52.706C160.393,52.438 160.4,52.169 160.4,51.9ZM515.9,68.8L507.6,68.8L507.6,59.4L515.9,59.4L515.9,68.8ZM71,12L64.8,12L64.8,4.1L71,4.1L71,12ZM491.1,12L484.9,12L484.9,4.1L491.1,4.1L491.1,12Z" style="fill:url(#_Linear5);"/>
            </g>
        </g>
    </g>
    <g transform="matrix(2.5625,0,0,2.5625,686.752,483.396)">
        <g transform="matrix(1,0,0,1,-32,-32)">
            <rect x="31" y="51" width="2" height="8" style="fill:url(#_Linear6);"/>
            <path d="M56.602,42.637L34.621,7.515C34.088,6.565 33.108,6 32,6C30.9,6 29.928,6.557 29.393,7.491L7.374,42.677C6.812,43.677 6.889,44.869 7.573,45.791C8.289,46.754 9.469,47.187 10.658,46.925L31.769,42.229C31.92,42.194 32.079,42.194 32.229,42.229L53.34,46.925C53.57,46.976 53.8,47.001 54.026,47C54.968,47 55.849,46.567 56.425,45.791C57.111,44.869 57.187,43.677 56.602,42.637ZM10.224,44.972C9.617,45.111 9.269,44.722 9.179,44.599C9.078,44.463 8.87,44.099 9.094,43.698L31,8.693L31,40.35L10.224,44.972ZM54.821,44.599C54.73,44.721 54.383,45.111 53.776,44.972L33,40.35L33,8.693L54.883,43.658C55.13,44.099 54.922,44.463 54.821,44.599Z" style="fill:url(#_Linear7);fill-rule:nonzero;"/>
            <rect x="25" y="49" width="2" height="6" style="fill:url(#_Linear8);"/>
            <rect x="37" y="49" width="2" height="6" style="fill:url(#_Linear9);"/>
            <rect x="43" y="47" width="2" height="6" style="fill:url(#_Linear10);"/>
            <rect x="19" y="47" width="2" height="6" style="fill:url(#_Linear11);"/>
            <path d="M35,19.285L35,37.321C35,37.555 35.163,37.758 35.391,37.809L48.504,40.726C48.937,40.822 49.272,40.349 49.036,39.973L35.924,19.02C35.657,18.594 35,18.783 35,19.285Z" style="fill:url(#_Linear12);fill-rule:nonzero;"/>
            <path d="M28.076,19.02L14.963,39.973C14.728,40.349 15.062,40.823 15.495,40.726L28.608,37.809C28.837,37.759 29,37.556 29,37.321L29,19.285C29,18.783 28.343,18.594 28.076,19.02Z" style="fill:url(#_Linear13);fill-rule:nonzero;"/>
        </g>
    </g>
    <defs>
        <linearGradient id="_Linear1" x1="0" y1="0" x2="1" y2="0" gradientUnits="userSpaceOnUse" gradientTransform="matrix(6.12323e-16,10,-10,6.12323e-16,47,38)"><stop offset="0" style="stop-color:rgb(109,199,255);stop-opacity:1"/><stop offset="1" style="stop-color:rgb(230,171,255);stop-opacity:1"/></linearGradient>
        <linearGradient id="_Linear2" x1="0" y1="0" x2="1" y2="0" gradientUnits="userSpaceOnUse" gradientTransform="matrix(7.10663e-16,11.606,-11.606,7.10663e-16,28,17.833)"><stop offset="0" style="stop-color:rgb(109,199,255);stop-opacity:1"/><stop offset="1" style="stop-color:rgb(230,171,255);stop-opacity:1"/></linearGradient>
        <linearGradient id="_Linear3" x1="0" y1="0" x2="1" y2="0" gradientUnits="userSpaceOnUse" gradientTransform="matrix(2.74847e-15,44.886,-44.886,2.74847e-15,32,9.833)"><stop offset="0" style="stop-color:rgb(26,109,255);stop-opacity:1"/><stop offset="1" style="stop-color:rgb(200,34,255);stop-opacity:1"/></linearGradient>
        <linearGradient id="_Linear4" x1="0" y1="0" x2="1" y2="0" gradientUnits="userSpaceOnUse" gradientTransform="matrix(2.74847e-15,44.886,-44.886,2.74847e-15,28,9.833)"><stop offset="0" style="stop-color:rgb(26,109,255);stop-opacity:1"/><stop offset="1" style="stop-color:rgb(200,34,255);stop-opacity:1"/></linearGradient>
        <linearGradient id="_Linear5" x1="0" y1="0" x2="1" y2="0" gradientUnits="userSpaceOnUse" gradientTransform="matrix(666.6,0,0,666.6,0,0)"><stop offset="0" style="stop-color:rgb(102,126,234);stop-opacity:1"/><stop offset="0.14" style="stop-color:rgb(105,121,232);stop-opacity:1"/><stop offset="0.57" style="stop-color:rgb(116,106,223);stop-opacity:1"/><stop offset="1" style="stop-color:rgb(128,90,213);stop-opacity:1"/></linearGradient>
        <linearGradient id="_Linear6" x1="0" y1="0" x2="1" y2="0" gradientUnits="userSpaceOnUse" gradientTransform="matrix(3.27085e-15,53.417,-53.417,3.27085e-15,32,5.085)"><stop offset="0" style="stop-color:rgb(26,109,255);stop-opacity:1"/><stop offset="1" style="stop-color:rgb(200,34,255);stop-opacity:1"/></linearGradient>
        <linearGradient id="_Linear7" x1="0" y1="0" x2="1" y2="0" gradientUnits="userSpaceOnUse" gradientTransform="matrix(3.27085e-15,53.417,-53.417,3.27085e-15,31.998,5.085)"><stop offset="0" style="stop-color:rgb(26,109,255);stop-opacity:1"/><stop offset="1" style="stop-color:rgb(200,34,255);stop-opacity:1"/></linearGradient>
        <linearGradient id="_Linear8" x1="0" y1="0" x2="1" y2="0" gradientUnits="userSpaceOnUse" gradientTransform="matrix(3.27085e-15,53.417,-53.417,3.27085e-15,26,5.085)"><stop offset="0" style="stop-color:rgb(26,109,255);stop-opacity:1"/><stop offset="1" style="stop-color:rgb(200,34,255);stop-opacity:1"/></linearGradient>
        <linearGradient id="_Linear9" x1="0" y1="0" x2="1" y2="0" gradientUnits="userSpaceOnUse" gradientTransform="matrix(3.27085e-15,53.417,-53.417,3.27085e-15,38,5.085)"><stop offset="0" style="stop-color:rgb(26,109,255);stop-opacity:1"/><stop offset="1" style="stop-color:rgb(200,34,255);stop-opacity:1"/></linearGradient>
        <linearGradient id="_Linear10" x1="0" y1="0" x2="1" y2="0" gradientUnits="userSpaceOnUse" gradientTransform="matrix(3.27085e-15,53.417,-53.417,3.27085e-15,44,5.085)"><stop offset="0" style="stop-color:rgb(26,109,255);stop-opacity:1"/><stop offset="1" style="stop-color:rgb(200,34,255);stop-opacity:1"/></linearGradient>
        <linearGradient id="_Linear11" x1="0" y1="0" x2="1" y2="0" gradientUnits="userSpaceOnUse" gradientTransform="matrix(3.27085e-15,53.417,-53.417,3.27085e-15,20,5.085)"><stop offset="0" style="stop-color:rgb(26,109,255);stop-opacity:1"/><stop offset="1" style="stop-color:rgb(200,34,255);stop-opacity:1"/></linearGradient>
        <linearGradient id="_Linear12" x1="0" y1="0" x2="1" y2="0" gradientUnits="userSpaceOnUse" gradientTransform="matrix(1.25894e-15,20.56,-20.56,1.25894e-15,42.057,19.255)"><stop offset="0" style="stop-color:rgb(109,199,255);stop-opacity:1"/><stop offset="1" style="stop-color:rgb(230,171,255);stop-opacity:1"/></linearGradient>
        <linearGradient id="_Linear13" x1="0" y1="0" x2="1" y2="0" gradientUnits="userSpaceOnUse" gradientTransform="matrix(1.25894e-15,20.56,-20.56,1.25894e-15,21.943,19.255)"><stop offset="0" style="stop-color:rgb(109,199,255);stop-opacity:1"/><stop offset="1" style="stop-color:rgb(230,171,255);stop-opacity:1"/></linearGradient>
    </defs>
</svg>
